<svg width="131" height="106" viewBox="0 0 131 106" fill="none" xmlns="http://www.w3.org/2000/svg">
<g clip-path="url(#clip0)">
<path d="M25.6879 35.2578C23.3099 37.7145 21.4463 40.6721 20.2705 43.9573C23.1082 40.5954 27.9203 36.459 32.08 36.459C38.1125 36.459 41.4976 38.5162 42.3205 44.3679C42.708 47.1233 40.9715 49.6909 38.0689 53.0541C34.6485 57.0171 17.1182 72.8446 11.3359 77.9991C13.2816 80.5674 27.9591 75.4178 30.9601 73.1458C38.2913 68.2595 43.1313 59.8563 43.1313 50.3076C43.1313 45.5974 41.9537 41.1658 39.8803 37.2976C37.0422 32.0025 29.8662 30.9411 25.6879 35.2578Z" fill="url(#paint0_linear)"/>
<path d="M73.6522 63.4214V74.7942H70.7564V65.64H67.6739V68.1153C67.6739 71.081 67.347 73.0895 65.9923 74.0936C65.3385 74.7243 64.4977 75.0278 63.1433 75.0278L62.8398 72.7857C63.3303 72.6924 63.774 72.5057 64.0541 72.2253C64.8949 71.5247 64.9882 70.2171 64.9882 68.0219V63.4214H73.6522Z" fill="#0F509C"/>
<path d="M78.7244 69.9139C78.7943 71.9692 80.4057 72.8566 82.2272 72.8566C83.5584 72.8566 84.516 72.6696 85.3799 72.3427L85.8002 74.3277C84.8195 74.7249 83.4651 75.0284 81.8303 75.0284C78.1405 75.0284 75.9688 72.7632 75.9688 69.2836C75.9688 66.1308 77.8836 63.165 81.5268 63.165C85.2163 63.165 86.4308 66.201 86.4308 68.6997C86.4308 69.2367 86.384 69.6573 86.3375 69.9139H78.7244ZM83.7218 67.9057C83.7452 66.8548 83.2781 65.1267 81.3632 65.1267C79.5883 65.1267 78.8412 66.7381 78.7244 67.9057H83.7218Z" fill="#0F509C"/>
<path d="M97.0037 63.4214V65.64H93.5943V74.7942H90.7219V65.64H87.3125V63.4214H97.0037Z" fill="#0F509C"/>
<path d="M61.9609 29.6229L63.7176 29.4668L61.9609 29.6229Z" fill="url(#paint1_linear)"/>
<path d="M87.2188 37.8848C87.3577 38.0375 87.4948 38.1921 87.6303 38.3482C87.4948 38.1921 87.3577 38.0376 87.2188 37.8848Z" fill="url(#paint2_linear)"/>
<path d="M89.3711 40.584C89.4313 40.6699 89.491 40.7562 89.5502 40.8428C89.4909 40.7562 89.4313 40.6699 89.3711 40.584Z" fill="url(#paint3_linear)"/>
<path d="M45.907 67.8711L41.0234 71.3696C47.1696 76.8785 55.3186 80.3146 64.2926 80.5299C64.5917 80.1801 64.8908 79.8303 65.1899 79.4805C64.9278 79.489 64.6663 79.4989 64.4009 79.4989C56.4274 79.4989 49.672 74.6264 45.907 67.8711Z" fill="url(#paint4_linear)"/>
<path d="M38.4844 73.144C43.0094 80.8363 49.9015 85.9383 58.2532 87.5473C60.2537 85.2076 62.2542 82.8678 64.2547 80.5281C55.2944 80.3049 47.1585 76.8708 41.0203 71.3691" fill="url(#paint5_linear)"/>
<path d="M42.6385 78.7754L35.5 85.6418H52.1485C48.5641 84.057 45.3622 81.7356 42.6385 78.7754Z" fill="url(#paint6_linear)"/>
<path d="M39.582 36.7782C39.582 36.7782 39.1236 35.8878 38.8905 35.5666C37.0637 33.0495 33.1408 28.623 29.6901 26.6011C21.9519 27.692 17.2584 32.962 12.0156 38.8868L19.5132 44.9214C19.9134 44.4124 20.1936 44.0731 20.2739 43.9568C20.2872 43.9196 20.3006 43.8824 20.3141 43.8453C21.492 40.6047 23.3402 37.6863 25.6912 35.2574C29.729 31.0859 36.5653 31.9377 39.582 36.7782Z" fill="url(#paint7_linear)"/>
<path d="M68.3551 35.2788C61.085 35.2788 54.4011 37.8128 49.1177 42.0532L48.7852 43.1547C53.547 40.0538 58.8623 37.8389 64.6208 37.8389C75.5138 37.8389 84.2682 45.2256 85.3313 55.9009C87.7939 53.0208 90.2564 50.1407 92.7189 47.2606C87.0499 39.9651 78.2439 35.2788 68.3551 35.2788Z" fill="url(#paint8_linear)"/>
<path d="M94.0694 3.1543V11.7919H93.8852C88.8015 9.08131 82.9631 7.53814 76.7527 7.53814C69.8515 7.53814 63.4101 9.44401 57.9531 12.7398L60.8473 3.1543H94.0694Z" fill="url(#paint9_linear)"/>
<path d="M66.9464 29.1802L61.9632 29.623L67.3891 11.7938H93.8936C88.8099 9.0832 82.9716 7.54004 76.7611 7.54004C69.8599 7.54004 63.4185 9.44591 57.9615 12.7417L48.7852 43.1336C48.7877 43.1319 48.7904 43.1303 48.793 43.1286L49.1177 42.0531C54.4011 37.8127 61.085 35.2787 68.355 35.2787C78.2389 35.2787 87.0409 39.9604 92.7102 47.2496C92.7394 47.2156 92.7685 47.1815 92.7977 47.1474C88.8956 36.5683 79.4055 29.1802 66.9464 29.1802Z" fill="url(#paint10_linear)"/>
<path d="M81.4126 60.6346C81.3738 60.6346 81.3347 60.6214 81.3027 60.5943C81.2307 60.5335 81.2217 60.4258 81.2825 60.3538L96.7042 42.1128C96.7651 42.0408 96.8727 42.0316 96.9447 42.0926C97.0167 42.1535 97.0257 42.2611 96.9648 42.3331L81.5431 60.5741C81.5093 60.6141 81.4611 60.6346 81.4126 60.6346Z" fill="url(#paint11_linear)"/>
<path d="M53.9595 92.7742C53.9207 92.7742 53.8815 92.761 53.8495 92.7339C53.7776 92.673 53.7686 92.5654 53.8294 92.4934L65.1839 79.3424C65.2447 79.2704 65.3523 79.261 65.4243 79.3222C65.4963 79.383 65.5053 79.4907 65.4445 79.5626L54.09 92.7137C54.0562 92.7537 54.008 92.7742 53.9595 92.7742Z" fill="url(#paint12_linear)"/>
<path d="M48.7897 43.1546L48.7975 43.1285C48.7949 43.1302 48.7923 43.1319 48.7897 43.1336L51.0351 35.6969C47.4576 29.7278 40.4184 25.9068 31.4122 26.4183C30.7861 26.4539 30.3844 26.5108 29.6907 26.6011C33.1413 28.6231 37.0643 33.0495 38.8911 35.5666C39.1241 35.8878 39.5824 36.7778 39.5826 36.7782C39.6876 36.9467 39.7888 37.1191 39.8842 37.2972C41.9576 41.1654 43.1352 45.5971 43.1352 50.3072C43.1352 59.8559 38.2952 68.2592 30.964 73.1454C27.963 75.4174 13.2855 80.5671 11.3398 77.9988V85.6415H35.5062L42.6447 78.7751C42.4268 78.5311 42.211 78.295 42.0116 78.0646C41.3016 77.2445 40.6266 76.379 39.9885 75.4698C35.5541 75.4914 31.0825 75.5092 29.5386 75.502C41.2184 64.3402 53.5619 55.6541 53.6304 45.4136C53.6414 43.7839 53.4545 42.2072 53.0881 40.7045C51.6103 41.4245 50.1764 42.2515 48.7897 43.1546Z" fill="url(#paint13_linear)"/>
</g>
<defs>
<linearGradient id="paint0_linear" x1="11.3359" y1="55.64" x2="43.1313" y2="55.64" gradientUnits="userSpaceOnUse">
<stop offset="0.236707" stop-color="#1E3C77"/>
<stop offset="0.478768" stop-color="#18509D"/>
<stop offset="1" stop-color="#1597D4" stop-opacity="0.9"/>
</linearGradient>
<linearGradient id="paint1_linear" x1="62.6535" y1="29.2231" x2="63.025" y2="29.8666" gradientUnits="userSpaceOnUse">
<stop offset="0.0251397" stop-color="#094794"/>
<stop offset="0.220207" stop-color="#76CAEB"/>
<stop offset="0.437824" stop-color="#1E3C77"/>
<stop offset="0.735751" stop-color="#18509D"/>
<stop offset="1" stop-color="#1597D4" stop-opacity="0.9"/>
</linearGradient>
<linearGradient id="paint2_linear" x1="87.2728" y1="37.8536" x2="87.5763" y2="38.3793" gradientUnits="userSpaceOnUse">
<stop offset="0.0251397" stop-color="#094794"/>
<stop offset="0.220207" stop-color="#76CAEB"/>
<stop offset="0.437824" stop-color="#1E3C77"/>
<stop offset="0.735751" stop-color="#18509D"/>
<stop offset="1" stop-color="#1597D4" stop-opacity="0.9"/>
</linearGradient>
<linearGradient id="paint3_linear" x1="89.3822" y1="40.5776" x2="89.5391" y2="40.8492" gradientUnits="userSpaceOnUse">
<stop offset="0.0251397" stop-color="#094794"/>
<stop offset="0.220207" stop-color="#76CAEB"/>
<stop offset="0.437824" stop-color="#1E3C77"/>
<stop offset="0.735751" stop-color="#18509D"/>
<stop offset="1" stop-color="#1597D4" stop-opacity="0.9"/>
</linearGradient>
<linearGradient id="paint4_linear" x1="41.0234" y1="74.2005" x2="65.1899" y2="74.2005" gradientUnits="userSpaceOnUse">
<stop offset="0.236707" stop-color="#1E3C77"/>
<stop offset="0.478768" stop-color="#18509D"/>
<stop offset="1" stop-color="#1597D4" stop-opacity="0.9"/>
</linearGradient>
<linearGradient id="paint5_linear" x1="46.415" y1="68.2545" x2="57.7286" y2="87.8502" gradientUnits="userSpaceOnUse">
<stop stop-color="#1E3C77"/>
<stop offset="0.288824" stop-color="#18509D"/>
<stop offset="1" stop-color="#1597D4" stop-opacity="0.9"/>
</linearGradient>
<linearGradient id="paint6_linear" x1="35.5" y1="82.2086" x2="52.1485" y2="82.2086" gradientUnits="userSpaceOnUse">
<stop offset="0.236707" stop-color="#1E3C77"/>
<stop offset="0.892176" stop-color="#18509D"/>
</linearGradient>
<linearGradient id="paint7_linear" x1="12.0156" y1="35.7613" x2="39.582" y2="35.7613" gradientUnits="userSpaceOnUse">
<stop offset="0.0805422" stop-color="#CA9604"/>
<stop offset="1" stop-color="#C16C49" stop-opacity="0.8"/>
</linearGradient>
<linearGradient id="paint8_linear" x1="63.7967" y1="33.1606" x2="79.0272" y2="59.5406" gradientUnits="userSpaceOnUse">
<stop offset="0.236707" stop-color="#1E3C77"/>
<stop offset="0.478768" stop-color="#18509D"/>
<stop offset="1" stop-color="#1597D4" stop-opacity="0.9"/>
</linearGradient>
<linearGradient id="paint9_linear" x1="82.1907" y1="18.6501" x2="70.145" y2="-2.21371" gradientUnits="userSpaceOnUse">
<stop offset="0.0251397" stop-color="#094794"/>
<stop offset="0.0401206" stop-color="#11519B"/>
<stop offset="0.144337" stop-color="#4792C6"/>
<stop offset="0.220207" stop-color="#69BBE1"/>
<stop offset="0.259313" stop-color="#76CAEB"/>
<stop offset="1" stop-color="#1E3C77"/>
</linearGradient>
<linearGradient id="paint10_linear" x1="87.8676" y1="8.31465" x2="63.02" y2="51.3521" gradientUnits="userSpaceOnUse">
<stop offset="0.236707" stop-color="#1E3C77"/>
<stop offset="0.478768" stop-color="#18509D"/>
<stop offset="1" stop-color="#1597D4" stop-opacity="0.9"/>
</linearGradient>
<linearGradient id="paint11_linear" x1="81.2422" y1="51.3434" x2="97.0052" y2="51.3434" gradientUnits="userSpaceOnUse">
<stop offset="0.220207" stop-color="#F3B203"/>
<stop offset="0.437824" stop-color="#982237" stop-opacity="0.8"/>
<stop offset="0.735751" stop-color="#302D7A" stop-opacity="0.9"/>
<stop offset="1" stop-color="#1597D4" stop-opacity="0.9"/>
</linearGradient>
<linearGradient id="paint12_linear" x1="53.7891" y1="83.6166" x2="69.3259" y2="83.6166" gradientUnits="userSpaceOnUse">
<stop offset="0.220207" stop-color="#F3B203"/>
<stop offset="0.437824" stop-color="#982237" stop-opacity="0.8"/>
<stop offset="0.735751" stop-color="#302D7A" stop-opacity="0.9"/>
<stop offset="1" stop-color="#1597D4" stop-opacity="0.9"/>
</linearGradient>
<linearGradient id="paint13_linear" x1="16.0614" y1="34.47" x2="43.0805" y2="81.2685" gradientUnits="userSpaceOnUse">
<stop offset="0.220207" stop-color="#F3B203"/>
<stop offset="0.437824" stop-color="#982237" stop-opacity="0.8"/>
<stop offset="0.797203" stop-color="#302D7A" stop-opacity="0.9"/>
<stop offset="1" stop-color="#25579E" stop-opacity="0.9"/>
</linearGradient>
<clipPath id="clip0">
<rect width="130.016" height="105.788" fill="white" transform="translate(0.984375)"/>
</clipPath>
</defs>
</svg>
