<svg width="26" height="19" viewBox="0 0 26 19" fill="none" xmlns="http://www.w3.org/2000/svg">
<path d="M12.8985 6.96048L12.8729 7.15884C13.5773 7.24969 15.2243 7.46221 17.0012 7.69151C19.4232 8.00405 22.0866 8.34774 22.9339 8.45693L22.9339 8.45693C22.9559 8.45976 22.9725 8.47841 22.9725 8.50108V17.1406C22.9725 17.4718 22.6967 17.7382 22.3618 17.7226L22.3618 17.7226C22.0548 17.7083 21.8073 17.4408 21.8073 17.1187V8.78492V8.48034L21.5278 8.60139L13.2303 12.197L13.2302 12.197C13.0816 12.2614 12.9142 12.2607 12.7672 12.197L12.7672 12.197C10.0761 11.0309 7.82662 10.0561 5.96125 9.2477C3.8545 8.33475 2.23772 7.63413 1.02818 7.11006L1.028 7.10998C0.563516 6.90928 0.560517 6.24326 1.02805 6.04108L1.02819 6.04102L12.7672 0.95413L12.7672 0.954119C12.915 0.890033 13.0824 0.890033 13.2303 0.954119L13.2303 0.954129C20.3573 4.0426 23.2558 5.29855 24.3562 5.77534C24.7972 5.96645 24.9494 6.03238 24.9691 6.04096L24.9694 6.04108C25.2342 6.15557 25.3779 6.44936 25.2985 6.73297C25.2374 6.94909 25.1129 7.04305 24.9298 7.12887L24.9298 7.12888C24.9099 7.13821 24.8808 7.132 24.867 7.10172C24.757 6.85979 24.5277 6.68091 24.2486 6.64498M12.8985 6.96048L12.8737 7.15894C12.2686 7.08334 11.8919 6.47435 12.051 5.92464C12.1763 5.46554 12.6115 5.17292 13.057 5.20359L13.057 5.2036C13.0706 5.20475 13.1178 5.21076 13.1795 5.21864L13.1999 5.22124L13.5595 5.26725L14.8315 5.4308C15.8819 5.566 17.2791 5.74606 18.6749 5.92602L22.5101 6.42067L23.7719 6.58348L24.1247 6.629L24.2173 6.64095L24.2409 6.64399L24.2467 6.64475L24.2482 6.64493L24.2485 6.64497C24.2485 6.64497 24.2485 6.64498 24.2486 6.64498M12.8985 6.96048C13.6025 7.05127 15.2478 7.26359 17.0234 7.49271C19.4463 7.80537 22.1118 8.14933 22.9594 8.25857L13.0432 5.40311C12.6908 5.37885 12.3428 5.61231 12.2435 5.97881C12.1169 6.41276 12.417 6.90032 12.8985 6.96048ZM24.2486 6.64498C24.2485 6.64498 24.2485 6.64499 24.2485 6.64499C24.2485 6.64499 24.2485 6.645 24.2485 6.64501L24.2486 6.64498ZM24.2485 6.64501L24.223 6.84334L24.1349 6.83197C24.1409 6.77116 24.1708 6.705 24.2485 6.64501Z" fill="url(#paint0_linear)" stroke="#5350FF" stroke-width="0.4"/>
<path d="M5.43611 11.1615L5.4361 11.1615C5.4067 11.1487 5.37383 11.1703 5.37383 11.2024V14.0101C5.37383 15.2307 6.17052 16.3497 7.54406 17.1738C8.91514 17.9965 10.8345 18.5057 12.9998 18.5057C15.1652 18.5057 17.0845 17.9965 18.4556 17.1738C19.8291 16.3497 20.6258 15.2307 20.6258 14.0101V11.2024C20.6258 11.1703 20.593 11.1487 20.5635 11.1615L14.0128 13.9999C14.0127 13.9999 14.0127 13.9999 14.0127 13.9999L14.0126 14L5.43611 11.1615ZM5.43611 11.1615L11.9865 13.9999L5.43611 11.1615Z" fill="url(#paint1_linear)" stroke="#5350FF" stroke-width="0.4"/>
<defs>
<linearGradient id="paint0_linear" x1="-14.2407" y1="0.706055" x2="27.2896" y2="0.706055" gradientUnits="userSpaceOnUse">
<stop stop-color="#FFF7B0"/>
<stop offset="0.220207" stop-color="#E5B317"/>
<stop offset="0.473958" stop-color="#C66E7F"/>
<stop offset="0.735751" stop-color="#7066D2"/>
<stop offset="1" stop-color="#009BDE"/>
</linearGradient>
<linearGradient id="paint1_linear" x1="-4.02619" y1="10.9575" x2="21.9316" y2="10.9575" gradientUnits="userSpaceOnUse">
<stop stop-color="#FFF7B0"/>
<stop offset="0.220207" stop-color="#E5B317"/>
<stop offset="0.473958" stop-color="#C66E7F"/>
<stop offset="0.735751" stop-color="#7066D2"/>
<stop offset="1" stop-color="#009BDE"/>
</linearGradient>
</defs>
</svg>
